# xmcd
#
# Track frame offsets: 
#        150
#        14140
#        29100
#        50097
#        66780
#        84790
#        106545
#        128087
#        144620
#        160342
#        178720
#        196225
#
# Disc length: 2890 seconds
#
# Revision: 2
# Processed by: cddbd v1.5.2PL0 Copyright (c) Steve Scherf et al.
# Submitted via: ExactAudioCopy v0.95b4
#
DISCID=a40b480c
DTITLE=James Armstrong - Sleeping With a Stranger
DYEAR=1995
DGENRE=
TTITLE0=Sleeping With A Stranger
TTITLE1=From Time To Time
TTITLE2=Hard Hard Blues
TTITLE3=Midnight Again
TTITLE4=Baby's Catwalkin'
TTITLE5=The Devil's Livin' There
TTITLE6=Don't Kiss And Tell
TTITLE7=Wrong Address
TTITLE8=Six Bar City
TTITLE9=Away From Home
TTITLE10=That Kind Of Feeling
TTITLE11=Devil's Moon
EXTD=
EXTT0=
EXTT1=
EXTT2=
EXTT3=
EXTT4=
EXTT5=
EXTT6=
EXTT7=
EXTT8=
EXTT9=
EXTT10=
EXTT11=
PLAYORDER=
